<mxfile host="app.diagrams.net" modified="2023-04-17T20:40:34.607Z" agent="Mozilla/5.0 (Windows NT 10.0; Win64; x64) AppleWebKit/537.36 (KHTML, like Gecko) Chrome/112.0.0.0 Safari/537.36" etag="9Hn5tma_rCZH9LwjwKaN" version="21.1.8" type="device">
  <diagram name="Страница 1" id="j0H997pK-XfcRTFtRqob">
    <mxGraphModel dx="1687" dy="936" grid="1" gridSize="10" guides="1" tooltips="1" connect="1" arrows="1" fold="1" page="1" pageScale="1" pageWidth="1169" pageHeight="827" math="0" shadow="0">
      <root>
        <mxCell id="0" />
        <mxCell id="1" parent="0" />
        <mxCell id="EtGjIPZrsCiXBr9LmPaj-7" value="" style="edgeStyle=orthogonalEdgeStyle;rounded=0;orthogonalLoop=1;jettySize=auto;html=1;entryX=0;entryY=0.5;entryDx=0;entryDy=0;exitX=0.5;exitY=1;exitDx=0;exitDy=0;" edge="1" parent="1" source="EtGjIPZrsCiXBr9LmPaj-1" target="EtGjIPZrsCiXBr9LmPaj-5">
          <mxGeometry relative="1" as="geometry">
            <mxPoint x="340" y="380" as="targetPoint" />
          </mxGeometry>
        </mxCell>
        <mxCell id="EtGjIPZrsCiXBr9LmPaj-1" value="Процесс 1" style="rounded=0;whiteSpace=wrap;html=1;" vertex="1" parent="1">
          <mxGeometry x="280" y="240" width="120" height="60" as="geometry" />
        </mxCell>
        <mxCell id="EtGjIPZrsCiXBr9LmPaj-8" value="" style="edgeStyle=orthogonalEdgeStyle;rounded=0;orthogonalLoop=1;jettySize=auto;html=1;" edge="1" parent="1" source="EtGjIPZrsCiXBr9LmPaj-2" target="EtGjIPZrsCiXBr9LmPaj-5">
          <mxGeometry relative="1" as="geometry" />
        </mxCell>
        <mxCell id="EtGjIPZrsCiXBr9LmPaj-2" value="Процесс 2" style="rounded=0;whiteSpace=wrap;html=1;" vertex="1" parent="1">
          <mxGeometry x="440" y="240" width="120" height="60" as="geometry" />
        </mxCell>
        <mxCell id="EtGjIPZrsCiXBr9LmPaj-3" value="..." style="text;html=1;align=center;verticalAlign=middle;resizable=0;points=[];autosize=1;strokeColor=none;fillColor=none;fontSize=32;" vertex="1" parent="1">
          <mxGeometry x="584.5" y="250" width="50" height="50" as="geometry" />
        </mxCell>
        <mxCell id="EtGjIPZrsCiXBr9LmPaj-10" value="" style="edgeStyle=orthogonalEdgeStyle;rounded=0;orthogonalLoop=1;jettySize=auto;html=1;entryX=1;entryY=0.5;entryDx=0;entryDy=0;exitX=0.5;exitY=1;exitDx=0;exitDy=0;" edge="1" parent="1" source="EtGjIPZrsCiXBr9LmPaj-4" target="EtGjIPZrsCiXBr9LmPaj-5">
          <mxGeometry relative="1" as="geometry">
            <mxPoint x="719.9999999999998" y="380" as="targetPoint" />
          </mxGeometry>
        </mxCell>
        <mxCell id="EtGjIPZrsCiXBr9LmPaj-4" value="Процесс N" style="rounded=0;whiteSpace=wrap;html=1;" vertex="1" parent="1">
          <mxGeometry x="660" y="240" width="120" height="60" as="geometry" />
        </mxCell>
        <mxCell id="EtGjIPZrsCiXBr9LmPaj-5" value="Процесс 0" style="rounded=0;whiteSpace=wrap;html=1;" vertex="1" parent="1">
          <mxGeometry x="440" y="384" width="120" height="60" as="geometry" />
        </mxCell>
      </root>
    </mxGraphModel>
  </diagram>
</mxfile>
